<svg version="1" xmlns="http://www.w3.org/2000/svg" width="346.667" height="346.667" viewBox="0 0 260.000000 260.000000"><path d="M124.7 5.6c-.1.1-3.7.4-7.9.8-7.3.6-28.9 5.6-32.6 7.5-.9.5-5.5 2.8-10.2 5.1-32.9 16.4-57.3 47.2-65.6 82.8-2.2 9.4-2.7 14.5-2.8 27.7-.1 13.9.7 21.1 3.6 31.5 1.1 4.1 2.3 8.4 2.6 9.5.2 1.1 2.8 6.9 5.7 13 23 48.5 74.2 76.6 128 70.1 44.5-5.4 84.4-36.7 100.2-78.7 6.7-17.7 7.8-24.8 7.7-46.9 0-16.4-1.1-23.4-6-38-13.9-42.3-52.2-74.9-96.5-82.4-7.9-1.3-25.4-2.7-26.2-2zM204 57v3h-79.5L45 59.9V54h159v3zm-9.3 18l-.1 7.9-8 .3-8.1.3.2 39.5c.1 21.7.2 43.6.3 48.6v9.2l7.8-.2 7.7-.1v12.8h-22.7c-12.6-.1-23.4-.2-24.2-.2-.9-.1-1.3-1.8-1.4-6.1-.1-6.7-1.1-6.1 10.3-6.4l6-.1v-20.8c0-20.2-.3-22.4-3-19.8-1.9 1.7-12.8 5.2-18.4 5.8-3.1.4-10.4.7-16.2.7l-10.7.1V168c0 11.8 0 22.3-.1 23.2-.1 1.6-1.2 1.8-9.1 1.8-5.4 0-9-.4-9-1s-1.6-.3-3.7.6c-5 2.2-17.5 2.5-28.3.8-4.7-.7-8.7-1.3-9.1-1.3-.5-.1-.2-14.1.4-14.7.1-.2 2.2.4 4.5 1.2 6.5 2.2 17.2 2.8 23.2 1.4 6.6-1.6 11.5-6.3 12.7-12.1.4-2.2.8-22.2.8-44.2l-.1-40.2-10.9-.2c-6.1-.1-11.9-.2-13.1-.3-1.9 0-2-.5-1.8-7.8.1-4.2.2-7.8.3-8 .1-.1 27.9-.2 62-.2h61.8v8zm8.4 127c.9 3.5.4 5-1.5 5.1H49.4c-5.2-.1-5.6-.6-4.5-5.1.1-.7 158.1-.7 158.2 0z"/><path d="M114.7 83.8c-.3.4-.4 11.7-.4 25.1v24.3l11.1-.5c13-.7 16.6-1.2 22.3-3.3 9.4-3.4 15.9-16.8 13.4-27.9-1.6-7.3-4.6-11.4-11.1-15.3l-5.4-3.2-14.8.1c-8.1 0-14.9.3-15.1.7z"/></svg>