<svg version="1.0" xmlns="http://www.w3.org/2000/svg" width="505.333" height="505.333" viewBox="0 0 379 379"><path d="M160.5 2C88.3 13.1 27.6 66.3 7.5 136c-6 21-6.9 27.9-6.9 53.5 0 25 .8 32 6.3 51.6 20.4 72.4 82.6 126.3 157.5 136.4 15.4 2.1 43.9 1.6 57.5-.9 39.9-7.4 73.7-25.1 101.7-53 28.5-28.5 46.3-63.3 53.6-104.6 1.8-10.1 1.8-48.9 0-59-7.4-41.9-25.3-76.5-54.7-105.5-30.3-29.9-68-48.2-110.5-53.4-13-1.7-37.7-1.2-51.5.9zm59.4 11.4c38.9 7.2 72 24.9 98.7 52.8 25.1 26.2 40.9 58 47.6 95.8 1.7 10 1.7 45.1-.1 55-6.7 37.9-22.3 69.4-47.6 95.9-27 28.3-61.1 46.2-101.5 53.3-9.9 1.7-45 1.7-55 0-37.3-6.6-69.3-22.4-95.4-47.2C38 291.7 20 257.6 12.8 217c-1.7-10-1.7-45 0-55C20 121.4 37.7 87.7 66.3 60.3c26.2-25.1 61.9-42.6 96.2-47.3 5-.6 9.7-1.3 10.5-1.5 3.8-1 39.3.5 46.9 1.9z"/><path d="M200.2 107.3c-1.1 1.2-2.5 3.3-3 4.6-.5 1.6-2.4 3-5.3 4-3.8 1.4-4.6 2.2-5.8 5.9-1.1 3.7-1.1 4.5.3 6.7.9 1.4 2.5 2.5 3.6 2.5 1.2 0 2 .7 2 1.6 0 .9-2.7 9.8-6 19.8-3.2 9.9-7.5 24.6-9.5 32.6-1.9 8-4.4 16.7-5.5 19.4-2.4 5.9-2.5 8.4-.4 11.4s5.5 2.8 8.6-.6c3.4-3.5 4-5.1 7.3-20.2 1.5-6.9 3.1-13.2 3.5-14 .5-1 5.1-2.4 12.7-3.9 23.8-4.8 39.6-11.5 49.4-21.1 4.6-4.5 5.8-6.4 6.4-9.9 1.9-11.2-.1-17.2-7.6-23.1-7.1-5.6-22.3-10-34.7-10-3.2 0-4.4-.5-4.9-1.8-1-3-4.6-6.2-6.8-6.2-1.2 0-3.1 1-4.3 2.3zm37.9 21.3c5.7 1.8 9.8 6 10.6 10.8.5 3.3.2 4-3.6 7.6-7.1 6.8-22 13.1-39.4 16.9-5.3 1.2-9.9 2.1-10.3 2.1-.3 0-.2-1.5.1-3.3 1.1-5 11.3-32.9 12.5-34.1 2.5-2.5 22.3-2.5 30.1 0zM152.5 116.1c-10.4 2.6-20.1 4.9-21.5 4.9-1.4 0-4.2.5-6.2 1-3.2.9-3.9 1.7-5 5.2-1 3.3-.9 4.5.3 6.7 1.3 2.2 2.2 2.6 5.9 2.6 2.5-.1 7.5-1 11.2-2 3.7-1 7-1.6 7.3-1.3 1 .9-1.4 16-4.1 26.7-5.1 20.4-13.3 36.8-21.6 43.4-4.4 3.5-11.5 4.6-17.4 2.7-5.7-1.9-14.4-11.1-14.4-15.3 0-7.9-2.8-10.1-9.2-7.4-6.6 2.8-7.4 11.2-1.9 19.9 5.4 8.5 21.7 16.8 33 16.8 10.5 0 20.1-6.2 28.3-18.3 10.4-15.4 16-33.8 20.5-68.2l.8-6 7.6-2.6c9.7-3.2 12.9-5.3 12.9-8.3 0-7-1.3-7-26.5-.5zM285.1 117.7c-1.4 1.2-2.9 5.1-4.6 11.8-1.5 5.5-4.4 15.9-6.5 23-4.4 14.5-14 54.6-14 58.5 0 3.4 1.7 5 5.5 5 4.8 0 7.3-3.4 9-12.1.8-4.1 2.3-12.2 3.4-18.1 1.2-5.9 5.7-21.5 10.1-34.7 4.4-13.2 8-25.5 8-27.3 0-6.9-5.9-10.2-10.9-6.1zM298.5 223.6c-20.9 3.4-123.5 21.1-168.3 29l-9.3 1.6-13 10c-7.2 5.5-12.9 10.2-12.7 10.4.2.2 10.7-1.9 23.3-4.6 48.3-10.3 142.3-26.3 173.7-29.5 6.6-.7 7.1-1 19.5-10.3 15.1-11.3 13.7-10.1 13.2-10.5-.2-.2-12.1 1.5-26.4 3.9z"/></svg>